<?xml version="1.0" standalone="no"?>
<!DOCTYPE svg PUBLIC "-//W3C//DTD SVG 20010904//EN"
 "http://www.w3.org/TR/2001/REC-SVG-20010904/DTD/svg10.dtd">
<svg version="1.0" xmlns="http://www.w3.org/2000/svg"
 width="39.000000pt" height="35.000000pt" viewBox="0 0 39.000000 35.000000"
 preserveAspectRatio="xMidYMid meet">
<metadata>
Created by potrace 1.16, written by Peter Selinger 2001-2019
</metadata>
<g transform="translate(0.000000,35.000000) scale(0.026712,-0.024138)"
fill="#A2270D" stroke="none">
<path d="M146 1278 c-4 -57 -9 -142 -12 -190 l-6 -88 193 -2 194 -3 0 -30 0
-30 -196 -3 -196 -2 -6 -128 c-6 -126 -31 -508 -43 -675 l-7 -87 477 0 476 0
-4 22 c-3 13 -10 75 -16 138 -6 63 -13 125 -16 137 l-4 23 -245 0 -245 0 0
230 0 230 30 0 30 0 0 -200 0 -200 244 0 244 0 11 -113 c7 -61 15 -146 19
-187 l7 -75 169 -3 169 -2 -6 97 c-4 54 -11 175 -17 268 -5 94 -12 194 -16
223 l-5 52 -235 0 c-180 0 -234 3 -234 13 0 27 -50 359 -56 368 -3 5 -84 9
-180 9 l-174 0 0 155 0 155 -169 0 -169 0 -6 -102z"/>
<path d="M550 1255 l0 -125 175 0 c96 0 175 -1 176 -2 0 -2 12 -88 27 -193
l27 -190 208 -3 c114 -1 207 1 207 5 0 5 -9 143 -20 308 -11 165 -20 306 -20
313 0 9 -85 12 -390 12 l-390 0 0 -125z"/>
</g>
</svg>
