<?xml version="1.0" standalone="no"?>
<!DOCTYPE svg PUBLIC "-//W3C//DTD SVG 20010904//EN"
 "http://www.w3.org/TR/2001/REC-SVG-20010904/DTD/svg10.dtd">
<svg version="1.0" xmlns="http://www.w3.org/2000/svg"
 width="141.000000pt" height="35.000000pt" viewBox="0 0 141.000000 35.000000"
 preserveAspectRatio="xMidYMid meet">
<metadata>
Created by potrace 1.16, written by Peter Selinger 2001-2019
</metadata>
<g transform="translate(0.000000,35.000000) scale(0.020705,-0.023026)"
fill="#A2270D" stroke="none">
<path d="M146 1278 c-4 -57 -9 -142 -12 -190 l-6 -88 193 -2 194 -3 0 -30 0
-30 -196 -3 -196 -2 -6 -128 c-6 -126 -31 -508 -43 -675 l-7 -87 477 0 476 0
-4 22 c-3 13 -10 75 -16 138 -6 63 -13 125 -16 137 l-4 23 -245 0 -245 0 0
230 0 230 30 0 30 0 0 -200 0 -200 244 0 244 0 11 -113 c7 -61 15 -146 19
-187 l7 -75 169 -3 169 -2 -6 97 c-4 54 -11 175 -17 268 -5 94 -12 194 -16
223 l-5 52 -235 0 c-180 0 -234 3 -234 13 0 27 -50 359 -56 368 -3 5 -84 9
-180 9 l-174 0 0 155 0 155 -169 0 -169 0 -6 -102z"/>
<path d="M550 1255 l0 -125 175 0 c96 0 175 -1 176 -2 0 -2 12 -88 27 -193
l27 -190 208 -3 c114 -1 207 1 207 5 0 5 -9 143 -20 308 -11 165 -20 306 -20
313 0 9 -85 12 -390 12 l-390 0 0 -125z"/>
<path d="M1870 910 c0 -282 1 -290 20 -290 19 0 20 8 22 250 l3 250 195 -250
c122 -156 201 -249 210 -248 13 3 15 45 18 291 2 282 2 287 -18 287 -20 0 -20
-6 -20 -245 0 -135 -3 -245 -7 -245 -5 0 -93 110 -198 245 -117 150 -197 244
-207 245 -17 0 -18 -20 -18 -290z"/>
<path d="M2707 1193 c-14 -23 -257 -556 -257 -564 0 -5 8 -9 18 -9 14 0 45 60
137 265 66 145 123 261 127 257 3 -4 59 -123 123 -264 93 -204 121 -258 136
-258 11 0 19 3 19 8 -1 4 -59 133 -129 287 -101 218 -134 281 -149 283 -11 2
-22 0 -25 -5z"/>
<path d="M3120 910 c0 -283 0 -290 20 -290 18 0 20 7 20 78 l0 78 63 62 c34
34 66 62 69 62 4 0 62 -63 129 -140 120 -138 122 -140 163 -140 l42 0 119 265
c66 145 123 261 127 257 3 -4 59 -123 123 -264 93 -204 121 -258 136 -258 11
0 19 3 19 8 -1 4 -59 133 -130 287 -112 245 -131 280 -151 280 -19 0 -38 -35
-151 -280 -71 -154 -131 -281 -132 -282 -3 -3 -124 136 -240 274 l-27 32 127
130 c110 114 123 131 101 131 -20 0 -65 -41 -206 -187 l-181 -187 0 187 c0
180 -1 187 -20 187 -20 0 -20 -7 -20 -290z"/>
<path d="M4260 910 c0 -282 1 -290 20 -290 19 0 20 8 22 246 l3 245 119 -205
c66 -113 124 -206 130 -206 6 1 63 91 126 201 63 110 118 203 122 205 5 3 8
-106 8 -241 0 -229 1 -246 18 -243 16 3 17 26 20 291 2 277 2 287 -17 287 -14
0 -50 -54 -147 -221 -116 -202 -129 -220 -141 -203 -8 11 -67 110 -131 222
-82 143 -122 202 -134 202 -17 0 -18 -19 -18 -290z"/>
<path d="M5187 1186 c-206 -74 -260 -343 -98 -489 51 -46 100 -67 177 -74 216
-20 371 171 310 382 -22 74 -97 153 -170 178 -59 20 -166 21 -219 3z m212 -42
c46 -19 97 -68 124 -119 30 -56 30 -174 0 -230 -46 -87 -128 -134 -231 -135
-151 0 -256 102 -255 250 0 74 17 121 62 172 70 80 195 106 300 62z"/>
<path d="M5632 1183 c3 -16 17 -18 106 -21 l102 -3 0 -269 c0 -263 0 -270 20
-270 20 0 20 7 20 270 l0 270 105 0 c98 0 105 1 105 20 0 19 -7 20 -231 20
-214 0 -230 -1 -227 -17z"/>
<path d="M6327 1186 c-181 -67 -252 -280 -146 -436 126 -184 419 -169 516 27
37 76 39 194 5 259 -56 108 -132 155 -257 161 -52 2 -93 -2 -118 -11z m212
-42 c113 -47 174 -182 138 -305 -73 -248 -441 -237 -498 16 -46 206 160 372
360 289z"/>
</g>
</svg>
